<?xml version="1.0" encoding="UTF-8" standalone="no"?>
<svg
   xmlns:dc="http://purl.org/dc/elements/1.1/"
   xmlns:cc="http://creativecommons.org/ns#"
   xmlns:rdf="http://www.w3.org/1999/02/22-rdf-syntax-ns#"
   xmlns:svg="http://www.w3.org/2000/svg"
   xmlns="http://www.w3.org/2000/svg"
   xmlns:sodipodi="http://sodipodi.sourceforge.net/DTD/sodipodi-0.dtd"
   xmlns:inkscape="http://www.inkscape.org/namespaces/inkscape"
   width="24"
   height="24"
   viewBox="0 0 24 24"
   version="1.1"
   id="svg6"
   sodipodi:docname="baseline-place-24px_3.svg"
   inkscape:version="0.92.1 r15371">
  <metadata
     id="metadata12">
    <rdf:RDF>
      <cc:Work
         rdf:about="">
        <dc:format>image/svg+xml</dc:format>
        <dc:type
           rdf:resource="http://purl.org/dc/dcmitype/StillImage" />
        <dc:title></dc:title>
      </cc:Work>
    </rdf:RDF>
  </metadata>
  <defs
     id="defs10" />
  <sodipodi:namedview
     pagecolor="#ffffff"
     bordercolor="#666666"
     borderopacity="1"
     objecttolerance="10"
     gridtolerance="10"
     guidetolerance="10"
     inkscape:pageopacity="0"
     inkscape:pageshadow="2"
     inkscape:window-width="1920"
     inkscape:window-height="1016"
     id="namedview8"
     showgrid="false"
     inkscape:zoom="9.8333333"
     inkscape:cx="-1.4237291"
     inkscape:cy="11.59322"
     inkscape:window-x="1920"
     inkscape:window-y="27"
     inkscape:window-maximized="1"
     inkscape:current-layer="svg6" />
  <path
     d="M12 2C8.13 2 5 5.13 5 9c0 5.25 7 13 7 13s7-7.75 7-13c0-3.87-3.13-7-7-7zm0 9.5c-1.38 0-2.5-1.12-2.5-2.5s1.12-2.5 2.5-2.5 2.5 1.12 2.5 2.5-1.12 2.5-2.5 2.5z"
     id="path2" />
  <path
     d="M0 0h24v24H0z"
     fill="none"
     id="path4" />
  <path
     style="fill:#008080;stroke-width:0.15370439"
     d="M 15.026075,20.615558 C 10.109557,15.460216 6.648437,10.330998 5.4497922,6.42395 4.9980769,4.9515595 4.9600635,2.6720871 5.3655117,1.3700843 c 0.8741674,-2.8071858 2.9868666,-5.0460558 5.9621473,-6.3182081 1.973388,-0.8437687 3.081183,-1.0400157 5.444671,-0.964528 3.211801,0.1025825 5.263165,0.8794825 7.547191,2.8582997 1.010009,0.875044 1.426762,1.3744616 2.029316,2.43182924 1.507796,2.64589986 1.624475,5.13734706 0.390577,8.34002776 -0.870149,2.2585438 -3.280312,6.0661261 -5.749831,9.0835981 -1.185971,1.449121 -4.34054,4.926099 -4.590927,5.060133 -0.06722,0.03598 -0.68488,-0.524572 -1.372581,-1.245678 z M 18.113083,6.9609851 C 20.492184,5.9097096 21.146163,3.3971217 19.528342,1.523556 18.624992,0.47740485 16.709766,-0.03353765 15.12882,0.34985536 14.195608,0.57616718 13.033525,1.4456952 12.580145,2.2569013 c -0.38947,0.6968542 -0.453209,1.8219741 -0.15247,2.6914013 0.341329,0.9867689 1.468684,1.9139641 2.780028,2.286437 0.654272,0.1858391 2.193509,0.040807 2.90538,-0.2737545 z"
     id="path3684"
     inkscape:connector-curvature="0" />
</svg>
